<?xml version="1.0" encoding="UTF-8"?>
<svg version="1.1" xmlns="http://www.w3.org/2000/svg" width="423" height="368">
<path d="M0 0 C139.59 0 279.18 0 423 0 C423 121.44 423 242.88 423 368 C283.41 368 143.82 368 0 368 C0 246.56 0 125.12 0 0 Z " fill="#FEFEFE" transform="translate(0,0)"/>
<path d="M0 0 C13.97293269 2.67959988 27.88624701 7.63768745 38.97412109 16.69091797 C39.78107422 17.34705078 40.58802734 18.00318359 41.41943359 18.67919922 C48.41713175 24.6787931 54.27515542 31.48278948 59.97412109 38.69091797 C60.78623047 39.71443359 61.59833984 40.73794922 62.43505859 41.79248047 C80.76026512 65.76876242 96.98651041 98.27486228 103.97412109 127.69091797 C104.13267578 127.02705078 104.29123047 126.36318359 104.45458984 125.67919922 C105.90892574 120.17522081 107.05888988 116.04221198 111.97412109 112.69091797 C115.64684565 112.17544786 117.88542142 112.09708178 121.16552734 113.88623047 C122.97412109 115.69091797 122.97412109 115.69091797 123.43505859 118.21435547 C123.40669922 119.15537109 123.37833984 120.09638672 123.34912109 121.06591797 C123.33623047 122.00177734 123.32333984 122.93763672 123.31005859 123.90185547 C122.96114232 126.79867196 122.17697002 129.04465033 120.97412109 131.69091797 C125.31786201 128.47654969 129.60220475 125.2034348 133.83276367 121.84228516 C140.80857703 116.30791492 147.90290102 110.99633702 155.21630859 105.91601562 C156.37409686 105.10910152 157.52787593 104.2963994 158.67724609 103.47753906 C175.87873548 91.23232744 195.03430618 81.60396322 214.97412109 74.69091797 C215.65458496 74.45373047 216.33504883 74.21654297 217.03613281 73.97216797 C237.91518041 67.00038164 260.60135569 69.95959178 280.66943359 77.99560547 C284.72168458 80.07441981 288.87376409 82.49020395 290.97412109 86.69091797 C292.95999473 99.85442321 282.91731046 110.57909558 275.60009766 120.52148438 C271.21598646 126.37091563 266.61463422 132.0441287 261.97412109 137.69091797 C261.19294922 138.64353516 260.41177734 139.59615234 259.60693359 140.57763672 C258.1534436 142.34923929 256.69902915 144.12008384 255.24365234 145.89013672 C253.13002146 148.49852458 251.05509016 151.13198639 248.99169922 153.7800293 C225.72839613 183.61366571 225.72839613 183.61366571 211.97412109 187.69091797 C202.34836941 188.72224851 194.25269429 185.21907283 185.97412109 180.69091797 C186.55419922 181.41794922 186.55419922 181.41794922 187.14599609 182.15966797 C195.73930248 193.22035935 197.99831022 202.69847491 196.97412109 216.69091797 C196.10193208 220.32919213 194.7524104 223.40876672 192.97412109 226.69091797 C192.51521484 227.54427734 192.05630859 228.39763672 191.58349609 229.27685547 C185.94990308 239.15046848 178.98830143 245.80001999 169.97412109 252.69091797 C169.35021484 253.17689453 168.72630859 253.66287109 168.08349609 254.16357422 C156.85311677 262.02989848 142.47290774 265.59628416 128.97412109 263.69091797 C119.61631544 261.08117137 113.70778371 254.5050186 109.02880859 246.26513672 C100.56353595 229.7704963 100.5562792 213.88311117 100.97412109 195.69091797 C100.69439453 196.68607422 100.41466797 197.68123047 100.12646484 198.70654297 C97.7438338 207.05637483 95.15322402 215.30624311 92.28662109 223.50341797 C91.98941162 224.35645508 91.69220215 225.20949219 91.38598633 226.08837891 C90.09145187 229.74845763 88.76559834 233.24018118 86.97412109 236.69091797 C82.22412109 235.94091797 82.22412109 235.94091797 79.97412109 233.69091797 C79.67333984 231.84326172 79.67333984 231.84326172 79.66162109 229.62841797 C79.64486328 228.91556641 79.62810547 228.20271484 79.61083984 227.46826172 C80.04085694 224.18071168 81.05920183 221.32647486 82.14770508 218.20385742 C83.59256957 213.81035957 84.60955652 209.316593 85.66162109 204.81591797 C85.8865625 203.88005859 86.11150391 202.94419922 86.34326172 201.97998047 C87.57461829 196.88975597 87.57461829 196.88975597 87.97412109 191.69091797 C87.67119141 192.29677734 87.36826172 192.90263672 87.05615234 193.52685547 C86.16812769 195.30290477 85.27442526 197.07612139 84.37646484 198.84716797 C83.51331098 200.59751899 82.68464485 202.36600648 81.91552734 204.15966797 C76.06132977 217.36913941 63.78118869 228.70129751 50.47412109 234.12841797 C48.98109329 234.66891342 47.48188838 235.1930172 45.97412109 235.69091797 C44.98412109 236.02091797 43.99412109 236.35091797 42.97412109 236.69091797 C34.62625323 237.40253949 27.21362881 236.91887141 20.40380859 231.73388672 C17.82355523 229.47327668 15.38490075 227.13064352 12.97412109 224.69091797 C12.41853516 224.15724609 11.86294922 223.62357422 11.29052734 223.07373047 C-0.58696328 210.64903838 -6.86030814 191.53253336 -6.61572266 174.63745117 C-6.0436206 162.57768771 -1.74740005 152.20888475 6.97412109 143.69091797 C12.04334811 139.5029163 16.59440723 137.36124305 22.97412109 135.69091797 C21.69537109 135.46017578 20.41662109 135.22943359 19.09912109 134.99169922 C17.39062037 134.66314139 15.68229608 134.33366513 13.97412109 134.00341797 C13.13494141 133.85453125 12.29576172 133.70564453 11.43115234 133.55224609 C3.97687154 132.07872547 -2.45727468 129.47589019 -6.83837891 123.00341797 C-10.79250507 115.96144062 -12.41486348 107.75249751 -13.90087891 99.87841797 C-14.06378418 99.02022461 -14.22668945 98.16203125 -14.39453125 97.27783203 C-17.06411948 82.58885359 -18.86927222 67.73289363 -20.74172974 52.92468262 C-20.93100188 51.43676897 -21.12311609 49.94921406 -21.31808472 48.46203613 C-22.56646173 38.92811415 -23.36725486 29.57393537 -23.33837891 19.94091797 C-23.35449219 18.81943359 -23.37060547 17.69794922 -23.38720703 16.54248047 C-23.38785156 15.46224609 -23.38849609 14.38201172 -23.38916016 13.26904297 C-23.39214111 12.31416992 -23.39512207 11.35929687 -23.39819336 10.37548828 C-22.86392254 6.52313294 -20.96744526 4.01490511 -18.75634766 0.90576172 C-14.10280152 -2.36117474 -5.47674227 -0.8355695 0 0 Z " fill="#4C2D5B" transform="translate(93.02587890625,45.30908203125)"/>
<path d="M0 0 C5.1232904 -0.32872442 9.30678049 0.82397174 14.0625 2.5625 C14.80910889 2.83425049 15.55571777 3.10600098 16.32495117 3.38598633 C49.30323821 15.74623562 67.44268787 47.2212926 81.60791016 77.89697266 C102.46381182 124.38566261 102.46381182 124.38566261 95 145 C91.65179146 152.64530209 87.33298045 159.8266793 83.13867188 167.03027344 C81.93726186 169.1085273 80.75718571 171.19805738 79.578125 173.2890625 C63.65199768 201.29042932 63.65199768 201.29042932 49 206 C43.60996592 206.78400496 40.39322485 205.67642552 36.04296875 202.6640625 C28.40549048 196.44309549 23.84858054 188.98002126 20 180 C19.73002197 179.40590332 19.46004395 178.81180664 19.18188477 178.19970703 C16.88393301 172.7634721 16.51365135 167.86183839 16.5625 162 C16.54251953 161.14921875 16.52253906 160.2984375 16.50195312 159.421875 C16.50768558 151.94675204 18.57960188 146.27958961 23.8125 140.875 C27.87025597 137.61288245 32.70497334 135.93817306 37.58129883 134.26708984 C42.96414836 132.34360349 46.53108213 129.65804186 49.3125 124.625 C50.5986858 119.71410875 50.67843098 116.30660781 48.3125 111.75 C44.69785838 107.45150727 41.46113194 105.85753312 36 105 C32.65611452 104.84439002 29.3177994 104.70508122 25.97070312 104.65820312 C20.86269735 104.45000952 17.81769532 103.40647341 14 100 C10.33751125 93.13183182 9.34346346 85.57620201 8 78 C7.8438623 77.13665039 7.68772461 76.27330078 7.52685547 75.38378906 C3.06476515 50.5304258 -0.43126916 25.30112405 0 0 Z " fill="#FEFDFE" transform="translate(94,63)"/>
<path d="M0 0 C-1.63055285 5.06067926 -4.63737529 8.95401968 -7.75 13.1875 C-8.32202148 13.9719751 -8.89404297 14.7564502 -9.48339844 15.56469727 C-18.60511792 27.99991479 -28.10975049 40.16671032 -38 52 C-38.42877441 52.51369141 -38.85754883 53.02738281 -39.29931641 53.55664062 C-60.27135915 78.64274496 -60.27135915 78.64274496 -66.7890625 79.49609375 C-71.55754103 79.24411919 -75.24938578 77.32655658 -79.375 75.0625 C-80.08527344 74.68931641 -80.79554688 74.31613281 -81.52734375 73.93164062 C-83.35847005 72.96743275 -85.17996537 71.98498442 -87 71 C-90.5227954 69.2386023 -94.26922804 70.08455007 -98 71 C-101.30540823 72.79535857 -103.47983032 75.1015251 -105.375 78.375 C-106.79383104 84.33409035 -106.21398184 88.65735317 -103.34375 93.95703125 C-101.3796706 96.94311709 -99.00807889 99.4932002 -96.6171875 102.140625 C-92.62186884 106.73427641 -91.25700655 111.09358047 -91.46484375 117.09375 C-93.53235984 128.32172059 -101.32226355 139.16770829 -110.4453125 145.76953125 C-112.91668631 147.29961378 -115.41497445 148.67191348 -118 150 C-118.88429687 150.474375 -119.76859375 150.94875 -120.6796875 151.4375 C-127.21065637 154.84833241 -132.51758521 156.52508174 -140 156 C-146.03666494 153.90564686 -149.94735712 149.7508133 -152.97265625 144.22265625 C-157.39261451 133.71692631 -157.3068037 121.68835924 -157.1875 110.5 C-157.1781543 109.19643555 -157.16880859 107.89287109 -157.15917969 106.54980469 C-157.12225718 102.69944989 -157.06477835 98.84997648 -157 95 C-156.98598145 93.92298828 -156.97196289 92.84597656 -156.95751953 91.73632812 C-156.66821388 73.39971826 -152.83939942 62.15653882 -139.9375 48.5 C-127.68115486 36.82042404 -112.98330975 28.62330895 -98.43365479 20.17807007 C-94.16474923 17.6950615 -89.93198959 15.1571148 -85.7109375 12.59375 C-83.92335643 11.51371792 -82.13527733 10.43451517 -80.3470459 9.3555603 C-78.68479465 8.34871821 -77.02831454 7.33236713 -75.37207031 6.31567383 C-52.52424817 -7.41181695 -24.42354486 -12.95412942 0 0 Z " fill="#FDFDFD" transform="translate(359,136)"/>
<path d="M0 0 C0.33 0 0.66 0 1 0 C1 3.63 1 7.26 1 11 C0.01 10.34 -0.98 9.68 -2 9 C-1.125 2.25 -1.125 2.25 0 0 Z " fill="#E7E3E9" transform="translate(194,239)"/>
</svg>
